<svg width="25" height="25" viewBox="0 0 25 25" fill="none" xmlns="http://www.w3.org/2000/svg">
<rect x="0.5" y="0.0999756" width="24" height="24" rx="6" fill="black"/>
<path d="M17.5299 15.1206C17.3414 15.5922 17.1183 16.0264 16.8597 16.4255C16.5073 16.9697 16.2188 17.3463 15.9964 17.5555C15.6517 17.8988 15.2824 18.0747 14.8869 18.0847C14.6029 18.0847 14.2605 17.9972 13.8619 17.8197C13.4621 17.643 13.0946 17.5555 12.7585 17.5555C12.4061 17.5555 12.0282 17.643 11.6239 17.8197C11.219 17.9972 10.8928 18.0897 10.6435 18.0988C10.2642 18.1163 9.88616 17.9355 9.50882 17.5555C9.26798 17.328 8.96673 16.938 8.60586 16.3855C8.21867 15.7956 7.90034 15.1114 7.65096 14.3314C7.38389 13.489 7.25 12.6731 7.25 11.8833C7.25 10.9786 7.43051 10.1983 7.79208 9.54441C8.07624 9.01918 8.45428 8.60486 8.92741 8.3007C9.40055 7.99654 9.91178 7.84155 10.4623 7.83163C10.7636 7.83163 11.1586 7.93254 11.6495 8.13087C12.139 8.32986 12.4534 8.43078 12.5912 8.43078C12.6942 8.43078 13.0434 8.31278 13.6353 8.07754C14.1951 7.85938 14.6676 7.76905 15.0546 7.80463C16.1034 7.89629 16.8913 8.34403 17.4153 9.15067C16.4773 9.76615 16.0133 10.6282 16.0226 11.7341C16.031 12.5955 16.3196 13.3123 16.8867 13.8814C17.1437 14.1456 17.4307 14.3498 17.75 14.4948C17.6807 14.7123 17.6077 14.9206 17.5299 15.1206ZM15.1246 4.87005C15.1246 5.54521 14.8969 6.1756 14.4429 6.75908C13.895 7.45272 13.2324 7.85355 12.5138 7.7903C12.5046 7.7093 12.4993 7.62405 12.4993 7.53447C12.4993 6.88632 12.7598 6.19268 13.2225 5.62553C13.4535 5.33837 13.7473 5.0996 14.1035 4.90913C14.459 4.72151 14.7953 4.61774 15.1115 4.59998C15.1208 4.69023 15.1246 4.7805 15.1246 4.87004V4.87005Z" fill="white"/>
</svg>
