<svg width="25" height="25" viewBox="0 0 25 25" fill="none" xmlns="http://www.w3.org/2000/svg">
<rect x="0.5" y="0.0999756" width="24" height="24" rx="6" fill="#2867B2"/>
<path d="M9.2 18.1H6.65V10.075H9.2V18.1ZM7.925 8.94998C7.1 8.94998 6.5 8.34998 6.5 7.52498C6.5 6.69998 7.175 6.09998 7.925 6.09998C8.75 6.09998 9.35 6.69998 9.35 7.52498C9.35 8.34998 8.75 8.94998 7.925 8.94998ZM18.5 18.1H15.95V13.75C15.95 12.475 15.425 12.1 14.675 12.1C13.925 12.1 13.175 12.7 13.175 13.825V18.1H10.625V10.075H13.025V11.2C13.25 10.675 14.15 9.84998 15.425 9.84998C16.85 9.84998 18.35 10.675 18.35 13.15V18.1H18.5Z" fill="white"/>
</svg>
